<?xml version="1.0" encoding="utf-8" standalone="no"?>
<!DOCTYPE svg PUBLIC "-//W3C//DTD SVG 1.1//EN"
  "http://www.w3.org/Graphics/SVG/1.1/DTD/svg11.dtd">
<svg xmlns:xlink="http://www.w3.org/1999/xlink" width="608.98125pt" height="290.99625pt" viewBox="0 0 608.98125 290.99625" xmlns="http://www.w3.org/2000/svg" version="1.1">
 <metadata>
  <rdf:RDF xmlns:dc="http://purl.org/dc/elements/1.1/" xmlns:cc="http://creativecommons.org/ns#" xmlns:rdf="http://www.w3.org/1999/02/22-rdf-syntax-ns#">
   <cc:Work>
    <dc:type rdf:resource="http://purl.org/dc/dcmitype/StillImage"/>
    <dc:date>2023-06-06T10:14:21.340129</dc:date>
    <dc:format>image/svg+xml</dc:format>
    <dc:creator>
     <cc:Agent>
      <dc:title>Matplotlib v3.5.2, https://matplotlib.org/</dc:title>
     </cc:Agent>
    </dc:creator>
   </cc:Work>
  </rdf:RDF>
 </metadata>
 <defs>
  <style type="text/css">*{stroke-linejoin: round; stroke-linecap: butt}</style>
 </defs>
 <g id="figure_1">
  <g id="patch_1">
   <path d="M 0 290.99625 
L 608.98125 290.99625 
L 608.98125 0 
L 0 0 
z
" style="fill: #ffffff"/>
  </g>
  <g id="axes_1">
   <g id="patch_2">
    <path d="M 43.78125 253.44 
L 297.417614 253.44 
L 297.417614 36 
L 43.78125 36 
z
" style="fill: #ffffff"/>
   </g>
   <g id="matplotlib.axis_1">
    <g id="xtick_1">
     <g id="line2d_1">
      <defs>
       <path id="m3e8a5fab3d" d="M 0 0 
L 0 3.5 
" style="stroke: #000000; stroke-width: 0.8"/>
      </defs>
      <g>
       <use xlink:href="#m3e8a5fab3d" x="55.310176" y="253.44" style="stroke: #000000; stroke-width: 0.8"/>
      </g>
     </g>
     <g id="text_1">
      <!-- 0 -->
      <g transform="translate(52.128926 268.038437)scale(0.1 -0.1)">
       <defs>
        <path id="DejaVuSans-30" d="M 2034 4250 
Q 1547 4250 1301 3770 
Q 1056 3291 1056 2328 
Q 1056 1369 1301 889 
Q 1547 409 2034 409 
Q 2525 409 2770 889 
Q 3016 1369 3016 2328 
Q 3016 3291 2770 3770 
Q 2525 4250 2034 4250 
z
M 2034 4750 
Q 2819 4750 3233 4129 
Q 3647 3509 3647 2328 
Q 3647 1150 3233 529 
Q 2819 -91 2034 -91 
Q 1250 -91 836 529 
Q 422 1150 422 2328 
Q 422 3509 836 4129 
Q 1250 4750 2034 4750 
z
" transform="scale(0.015625)"/>
       </defs>
       <use xlink:href="#DejaVuSans-30"/>
      </g>
     </g>
    </g>
    <g id="xtick_2">
     <g id="line2d_2">
      <g>
       <use xlink:href="#m3e8a5fab3d" x="101.425878" y="253.44" style="stroke: #000000; stroke-width: 0.8"/>
      </g>
     </g>
     <g id="text_2">
      <!-- 20 -->
      <g transform="translate(95.063378 268.038437)scale(0.1 -0.1)">
       <defs>
        <path id="DejaVuSans-32" d="M 1228 531 
L 3431 531 
L 3431 0 
L 469 0 
L 469 531 
Q 828 903 1448 1529 
Q 2069 2156 2228 2338 
Q 2531 2678 2651 2914 
Q 2772 3150 2772 3378 
Q 2772 3750 2511 3984 
Q 2250 4219 1831 4219 
Q 1534 4219 1204 4116 
Q 875 4013 500 3803 
L 500 4441 
Q 881 4594 1212 4672 
Q 1544 4750 1819 4750 
Q 2544 4750 2975 4387 
Q 3406 4025 3406 3419 
Q 3406 3131 3298 2873 
Q 3191 2616 2906 2266 
Q 2828 2175 2409 1742 
Q 1991 1309 1228 531 
z
" transform="scale(0.015625)"/>
       </defs>
       <use xlink:href="#DejaVuSans-32"/>
       <use xlink:href="#DejaVuSans-30" x="63.623047"/>
      </g>
     </g>
    </g>
    <g id="xtick_3">
     <g id="line2d_3">
      <g>
       <use xlink:href="#m3e8a5fab3d" x="147.541581" y="253.44" style="stroke: #000000; stroke-width: 0.8"/>
      </g>
     </g>
     <g id="text_3">
      <!-- 40 -->
      <g transform="translate(141.179081 268.038437)scale(0.1 -0.1)">
       <defs>
        <path id="DejaVuSans-34" d="M 2419 4116 
L 825 1625 
L 2419 1625 
L 2419 4116 
z
M 2253 4666 
L 3047 4666 
L 3047 1625 
L 3713 1625 
L 3713 1100 
L 3047 1100 
L 3047 0 
L 2419 0 
L 2419 1100 
L 313 1100 
L 313 1709 
L 2253 4666 
z
" transform="scale(0.015625)"/>
       </defs>
       <use xlink:href="#DejaVuSans-34"/>
       <use xlink:href="#DejaVuSans-30" x="63.623047"/>
      </g>
     </g>
    </g>
    <g id="xtick_4">
     <g id="line2d_4">
      <g>
       <use xlink:href="#m3e8a5fab3d" x="193.657283" y="253.44" style="stroke: #000000; stroke-width: 0.8"/>
      </g>
     </g>
     <g id="text_4">
      <!-- 60 -->
      <g transform="translate(187.294783 268.038437)scale(0.1 -0.1)">
       <defs>
        <path id="DejaVuSans-36" d="M 2113 2584 
Q 1688 2584 1439 2293 
Q 1191 2003 1191 1497 
Q 1191 994 1439 701 
Q 1688 409 2113 409 
Q 2538 409 2786 701 
Q 3034 994 3034 1497 
Q 3034 2003 2786 2293 
Q 2538 2584 2113 2584 
z
M 3366 4563 
L 3366 3988 
Q 3128 4100 2886 4159 
Q 2644 4219 2406 4219 
Q 1781 4219 1451 3797 
Q 1122 3375 1075 2522 
Q 1259 2794 1537 2939 
Q 1816 3084 2150 3084 
Q 2853 3084 3261 2657 
Q 3669 2231 3669 1497 
Q 3669 778 3244 343 
Q 2819 -91 2113 -91 
Q 1303 -91 875 529 
Q 447 1150 447 2328 
Q 447 3434 972 4092 
Q 1497 4750 2381 4750 
Q 2619 4750 2861 4703 
Q 3103 4656 3366 4563 
z
" transform="scale(0.015625)"/>
       </defs>
       <use xlink:href="#DejaVuSans-36"/>
       <use xlink:href="#DejaVuSans-30" x="63.623047"/>
      </g>
     </g>
    </g>
    <g id="xtick_5">
     <g id="line2d_5">
      <g>
       <use xlink:href="#m3e8a5fab3d" x="239.772986" y="253.44" style="stroke: #000000; stroke-width: 0.8"/>
      </g>
     </g>
     <g id="text_5">
      <!-- 80 -->
      <g transform="translate(233.410486 268.038437)scale(0.1 -0.1)">
       <defs>
        <path id="DejaVuSans-38" d="M 2034 2216 
Q 1584 2216 1326 1975 
Q 1069 1734 1069 1313 
Q 1069 891 1326 650 
Q 1584 409 2034 409 
Q 2484 409 2743 651 
Q 3003 894 3003 1313 
Q 3003 1734 2745 1975 
Q 2488 2216 2034 2216 
z
M 1403 2484 
Q 997 2584 770 2862 
Q 544 3141 544 3541 
Q 544 4100 942 4425 
Q 1341 4750 2034 4750 
Q 2731 4750 3128 4425 
Q 3525 4100 3525 3541 
Q 3525 3141 3298 2862 
Q 3072 2584 2669 2484 
Q 3125 2378 3379 2068 
Q 3634 1759 3634 1313 
Q 3634 634 3220 271 
Q 2806 -91 2034 -91 
Q 1263 -91 848 271 
Q 434 634 434 1313 
Q 434 1759 690 2068 
Q 947 2378 1403 2484 
z
M 1172 3481 
Q 1172 3119 1398 2916 
Q 1625 2713 2034 2713 
Q 2441 2713 2670 2916 
Q 2900 3119 2900 3481 
Q 2900 3844 2670 4047 
Q 2441 4250 2034 4250 
Q 1625 4250 1398 4047 
Q 1172 3844 1172 3481 
z
" transform="scale(0.015625)"/>
       </defs>
       <use xlink:href="#DejaVuSans-38"/>
       <use xlink:href="#DejaVuSans-30" x="63.623047"/>
      </g>
     </g>
    </g>
    <g id="xtick_6">
     <g id="line2d_6">
      <g>
       <use xlink:href="#m3e8a5fab3d" x="285.888688" y="253.44" style="stroke: #000000; stroke-width: 0.8"/>
      </g>
     </g>
     <g id="text_6">
      <!-- 100 -->
      <g transform="translate(276.344938 268.038437)scale(0.1 -0.1)">
       <defs>
        <path id="DejaVuSans-31" d="M 794 531 
L 1825 531 
L 1825 4091 
L 703 3866 
L 703 4441 
L 1819 4666 
L 2450 4666 
L 2450 531 
L 3481 531 
L 3481 0 
L 794 0 
L 794 531 
z
" transform="scale(0.015625)"/>
       </defs>
       <use xlink:href="#DejaVuSans-31"/>
       <use xlink:href="#DejaVuSans-30" x="63.623047"/>
       <use xlink:href="#DejaVuSans-30" x="127.246094"/>
      </g>
     </g>
    </g>
    <g id="text_7">
     <!-- Step -->
     <g transform="translate(159.214276 281.716562)scale(0.1 -0.1)">
      <defs>
       <path id="DejaVuSans-53" d="M 3425 4513 
L 3425 3897 
Q 3066 4069 2747 4153 
Q 2428 4238 2131 4238 
Q 1616 4238 1336 4038 
Q 1056 3838 1056 3469 
Q 1056 3159 1242 3001 
Q 1428 2844 1947 2747 
L 2328 2669 
Q 3034 2534 3370 2195 
Q 3706 1856 3706 1288 
Q 3706 609 3251 259 
Q 2797 -91 1919 -91 
Q 1588 -91 1214 -16 
Q 841 59 441 206 
L 441 856 
Q 825 641 1194 531 
Q 1563 422 1919 422 
Q 2459 422 2753 634 
Q 3047 847 3047 1241 
Q 3047 1584 2836 1778 
Q 2625 1972 2144 2069 
L 1759 2144 
Q 1053 2284 737 2584 
Q 422 2884 422 3419 
Q 422 4038 858 4394 
Q 1294 4750 2059 4750 
Q 2388 4750 2728 4690 
Q 3069 4631 3425 4513 
z
" transform="scale(0.015625)"/>
       <path id="DejaVuSans-74" d="M 1172 4494 
L 1172 3500 
L 2356 3500 
L 2356 3053 
L 1172 3053 
L 1172 1153 
Q 1172 725 1289 603 
Q 1406 481 1766 481 
L 2356 481 
L 2356 0 
L 1766 0 
Q 1100 0 847 248 
Q 594 497 594 1153 
L 594 3053 
L 172 3053 
L 172 3500 
L 594 3500 
L 594 4494 
L 1172 4494 
z
" transform="scale(0.015625)"/>
       <path id="DejaVuSans-65" d="M 3597 1894 
L 3597 1613 
L 953 1613 
Q 991 1019 1311 708 
Q 1631 397 2203 397 
Q 2534 397 2845 478 
Q 3156 559 3463 722 
L 3463 178 
Q 3153 47 2828 -22 
Q 2503 -91 2169 -91 
Q 1331 -91 842 396 
Q 353 884 353 1716 
Q 353 2575 817 3079 
Q 1281 3584 2069 3584 
Q 2775 3584 3186 3129 
Q 3597 2675 3597 1894 
z
M 3022 2063 
Q 3016 2534 2758 2815 
Q 2500 3097 2075 3097 
Q 1594 3097 1305 2825 
Q 1016 2553 972 2059 
L 3022 2063 
z
" transform="scale(0.015625)"/>
       <path id="DejaVuSans-70" d="M 1159 525 
L 1159 -1331 
L 581 -1331 
L 581 3500 
L 1159 3500 
L 1159 2969 
Q 1341 3281 1617 3432 
Q 1894 3584 2278 3584 
Q 2916 3584 3314 3078 
Q 3713 2572 3713 1747 
Q 3713 922 3314 415 
Q 2916 -91 2278 -91 
Q 1894 -91 1617 61 
Q 1341 213 1159 525 
z
M 3116 1747 
Q 3116 2381 2855 2742 
Q 2594 3103 2138 3103 
Q 1681 3103 1420 2742 
Q 1159 2381 1159 1747 
Q 1159 1113 1420 752 
Q 1681 391 2138 391 
Q 2594 391 2855 752 
Q 3116 1113 3116 1747 
z
" transform="scale(0.015625)"/>
      </defs>
      <use xlink:href="#DejaVuSans-53"/>
      <use xlink:href="#DejaVuSans-74" x="63.476562"/>
      <use xlink:href="#DejaVuSans-65" x="102.685547"/>
      <use xlink:href="#DejaVuSans-70" x="164.208984"/>
     </g>
    </g>
   </g>
   <g id="matplotlib.axis_2">
    <g id="ytick_1">
     <g id="line2d_7">
      <defs>
       <path id="md33f81defa" d="M 0 0 
L -3.5 0 
" style="stroke: #000000; stroke-width: 0.8"/>
      </defs>
      <g>
       <use xlink:href="#md33f81defa" x="43.78125" y="243.930758" style="stroke: #000000; stroke-width: 0.8"/>
      </g>
     </g>
     <g id="text_8">
      <!-- 0.0 -->
      <g transform="translate(20.878125 247.729977)scale(0.1 -0.1)">
       <defs>
        <path id="DejaVuSans-2e" d="M 684 794 
L 1344 794 
L 1344 0 
L 684 0 
L 684 794 
z
" transform="scale(0.015625)"/>
       </defs>
       <use xlink:href="#DejaVuSans-30"/>
       <use xlink:href="#DejaVuSans-2e" x="63.623047"/>
       <use xlink:href="#DejaVuSans-30" x="95.410156"/>
      </g>
     </g>
    </g>
    <g id="ytick_2">
     <g id="line2d_8">
      <g>
       <use xlink:href="#md33f81defa" x="43.78125" y="211.723884" style="stroke: #000000; stroke-width: 0.8"/>
      </g>
     </g>
     <g id="text_9">
      <!-- 0.2 -->
      <g transform="translate(20.878125 215.523103)scale(0.1 -0.1)">
       <use xlink:href="#DejaVuSans-30"/>
       <use xlink:href="#DejaVuSans-2e" x="63.623047"/>
       <use xlink:href="#DejaVuSans-32" x="95.410156"/>
      </g>
     </g>
    </g>
    <g id="ytick_3">
     <g id="line2d_9">
      <g>
       <use xlink:href="#md33f81defa" x="43.78125" y="179.51701" style="stroke: #000000; stroke-width: 0.8"/>
      </g>
     </g>
     <g id="text_10">
      <!-- 0.4 -->
      <g transform="translate(20.878125 183.316229)scale(0.1 -0.1)">
       <use xlink:href="#DejaVuSans-30"/>
       <use xlink:href="#DejaVuSans-2e" x="63.623047"/>
       <use xlink:href="#DejaVuSans-34" x="95.410156"/>
      </g>
     </g>
    </g>
    <g id="ytick_4">
     <g id="line2d_10">
      <g>
       <use xlink:href="#md33f81defa" x="43.78125" y="147.310136" style="stroke: #000000; stroke-width: 0.8"/>
      </g>
     </g>
     <g id="text_11">
      <!-- 0.6 -->
      <g transform="translate(20.878125 151.109355)scale(0.1 -0.1)">
       <use xlink:href="#DejaVuSans-30"/>
       <use xlink:href="#DejaVuSans-2e" x="63.623047"/>
       <use xlink:href="#DejaVuSans-36" x="95.410156"/>
      </g>
     </g>
    </g>
    <g id="ytick_5">
     <g id="line2d_11">
      <g>
       <use xlink:href="#md33f81defa" x="43.78125" y="115.103262" style="stroke: #000000; stroke-width: 0.8"/>
      </g>
     </g>
     <g id="text_12">
      <!-- 0.8 -->
      <g transform="translate(20.878125 118.90248)scale(0.1 -0.1)">
       <use xlink:href="#DejaVuSans-30"/>
       <use xlink:href="#DejaVuSans-2e" x="63.623047"/>
       <use xlink:href="#DejaVuSans-38" x="95.410156"/>
      </g>
     </g>
    </g>
    <g id="ytick_6">
     <g id="line2d_12">
      <g>
       <use xlink:href="#md33f81defa" x="43.78125" y="82.896387" style="stroke: #000000; stroke-width: 0.8"/>
      </g>
     </g>
     <g id="text_13">
      <!-- 1.0 -->
      <g transform="translate(20.878125 86.695606)scale(0.1 -0.1)">
       <use xlink:href="#DejaVuSans-31"/>
       <use xlink:href="#DejaVuSans-2e" x="63.623047"/>
       <use xlink:href="#DejaVuSans-30" x="95.410156"/>
      </g>
     </g>
    </g>
    <g id="ytick_7">
     <g id="line2d_13">
      <g>
       <use xlink:href="#md33f81defa" x="43.78125" y="50.689513" style="stroke: #000000; stroke-width: 0.8"/>
      </g>
     </g>
     <g id="text_14">
      <!-- 1.2 -->
      <g transform="translate(20.878125 54.488732)scale(0.1 -0.1)">
       <use xlink:href="#DejaVuSans-31"/>
       <use xlink:href="#DejaVuSans-2e" x="63.623047"/>
       <use xlink:href="#DejaVuSans-32" x="95.410156"/>
      </g>
     </g>
    </g>
    <g id="text_15">
     <!-- Ratio -->
     <g transform="translate(14.798438 157.554375)rotate(-90)scale(0.1 -0.1)">
      <defs>
       <path id="DejaVuSans-52" d="M 2841 2188 
Q 3044 2119 3236 1894 
Q 3428 1669 3622 1275 
L 4263 0 
L 3584 0 
L 2988 1197 
Q 2756 1666 2539 1819 
Q 2322 1972 1947 1972 
L 1259 1972 
L 1259 0 
L 628 0 
L 628 4666 
L 2053 4666 
Q 2853 4666 3247 4331 
Q 3641 3997 3641 3322 
Q 3641 2881 3436 2590 
Q 3231 2300 2841 2188 
z
M 1259 4147 
L 1259 2491 
L 2053 2491 
Q 2509 2491 2742 2702 
Q 2975 2913 2975 3322 
Q 2975 3731 2742 3939 
Q 2509 4147 2053 4147 
L 1259 4147 
z
" transform="scale(0.015625)"/>
       <path id="DejaVuSans-61" d="M 2194 1759 
Q 1497 1759 1228 1600 
Q 959 1441 959 1056 
Q 959 750 1161 570 
Q 1363 391 1709 391 
Q 2188 391 2477 730 
Q 2766 1069 2766 1631 
L 2766 1759 
L 2194 1759 
z
M 3341 1997 
L 3341 0 
L 2766 0 
L 2766 531 
Q 2569 213 2275 61 
Q 1981 -91 1556 -91 
Q 1019 -91 701 211 
Q 384 513 384 1019 
Q 384 1609 779 1909 
Q 1175 2209 1959 2209 
L 2766 2209 
L 2766 2266 
Q 2766 2663 2505 2880 
Q 2244 3097 1772 3097 
Q 1472 3097 1187 3025 
Q 903 2953 641 2809 
L 641 3341 
Q 956 3463 1253 3523 
Q 1550 3584 1831 3584 
Q 2591 3584 2966 3190 
Q 3341 2797 3341 1997 
z
" transform="scale(0.015625)"/>
       <path id="DejaVuSans-69" d="M 603 3500 
L 1178 3500 
L 1178 0 
L 603 0 
L 603 3500 
z
M 603 4863 
L 1178 4863 
L 1178 4134 
L 603 4134 
L 603 4863 
z
" transform="scale(0.015625)"/>
       <path id="DejaVuSans-6f" d="M 1959 3097 
Q 1497 3097 1228 2736 
Q 959 2375 959 1747 
Q 959 1119 1226 758 
Q 1494 397 1959 397 
Q 2419 397 2687 759 
Q 2956 1122 2956 1747 
Q 2956 2369 2687 2733 
Q 2419 3097 1959 3097 
z
M 1959 3584 
Q 2709 3584 3137 3096 
Q 3566 2609 3566 1747 
Q 3566 888 3137 398 
Q 2709 -91 1959 -91 
Q 1206 -91 779 398 
Q 353 888 353 1747 
Q 353 2609 779 3096 
Q 1206 3584 1959 3584 
z
" transform="scale(0.015625)"/>
      </defs>
      <use xlink:href="#DejaVuSans-52"/>
      <use xlink:href="#DejaVuSans-61" x="67.232422"/>
      <use xlink:href="#DejaVuSans-74" x="128.511719"/>
      <use xlink:href="#DejaVuSans-69" x="167.720703"/>
      <use xlink:href="#DejaVuSans-6f" x="195.503906"/>
     </g>
    </g>
   </g>
   <g id="line2d_14">
    <path d="M 55.310176 82.896387 
L 57.615961 82.408846 
L 59.921746 82.750112 
L 62.227531 82.555121 
L 64.533316 82.28696 
L 66.839101 82.555108 
L 69.144886 82.140685 
L 71.450671 82.213816 
L 73.756457 82.238194 
L 76.062242 82.067579 
L 78.368027 81.799419 
L 80.673812 81.945681 
L 82.979597 81.775054 
L 85.285382 81.677521 
L 87.591167 81.70191 
L 89.896952 81.823796 
L 92.202738 81.775016 
L 94.508523 81.45814 
L 96.814308 81.45814 
L 99.120093 81.43375 
L 101.425878 81.214369 
L 103.731663 81.189992 
L 106.037448 81.189992 
L 108.343233 81.043742 
L 110.649019 80.994988 
L 112.954804 80.946234 
L 115.260589 80.8487 
L 117.566374 80.507434 
L 119.872159 80.580577 
L 122.177944 80.897467 
L 124.483729 80.775581 
L 126.789514 80.434315 
L 129.0953 80.166167 
L 131.401085 80.361171 
L 133.70687 80.653696 
L 136.012655 80.019892 
L 138.31844 80.093036 
L 140.624225 80.141777 
L 142.93001 80.1174 
L 145.235795 80.263663 
L 147.541581 79.605494 
L 149.847366 79.70299 
L 152.153151 79.922396 
L 154.458936 79.800486 
L 156.764721 79.55674 
L 159.070506 79.654248 
L 161.376291 79.581117 
L 163.682076 79.312969 
L 165.987862 79.312969 
L 168.293647 78.849817 
L 170.599432 79.191084 
L 172.905217 79.264215 
L 175.211002 78.703555 
L 177.516787 79.264215 
L 179.822572 78.703542 
L 182.128357 78.289132 
L 184.434143 78.898559 
L 186.739928 78.825428 
L 189.045713 78.898559 
L 191.351498 78.679165 
L 193.657283 78.24039 
L 195.963068 78.532903 
L 198.268853 78.191636 
L 200.574638 78.411017 
L 202.880424 78.289145 
L 205.186209 78.240352 
L 207.491994 77.825967 
L 209.797779 78.069751 
L 212.103564 78.313496 
L 214.409349 77.996607 
L 216.715134 77.923488 
L 219.020919 78.094103 
L 221.326705 77.752836 
L 223.63249 77.484688 
L 225.938275 77.704082 
L 228.24406 77.752849 
L 230.549845 77.606561 
L 232.85563 77.460311 
L 235.161415 77.143409 
L 237.4672 77.192176 
L 239.772986 76.948392 
L 242.078771 77.045913 
L 244.384556 77.021524 
L 246.690341 77.21654 
L 248.996126 76.65588 
L 251.301911 76.875274 
L 253.607696 76.948392 
L 255.913481 76.65588 
L 258.219267 76.485228 
L 260.525052 76.460851 
L 262.830837 76.387732 
L 265.136622 76.509618 
L 267.442407 76.095182 
L 269.748192 76.558372 
L 272.053977 76.533995 
L 274.359762 76.412097 
L 276.665548 75.851437 
L 278.971333 76.387745 
L 281.277118 76.046453 
L 283.582903 76.24147 
L 285.888688 76.022076 
" clip-path="url(#p96d0905b8e)" style="fill: none; stroke: #1f77b4; stroke-width: 1.5; stroke-linecap: square"/>
   </g>
   <g id="line2d_15">
    <path d="M 55.310176 82.896387 
L 57.615961 82.058466 
L 59.921746 82.473478 
L 62.227531 82.524848 
L 64.533316 82.187552 
L 66.839101 82.382164 
L 69.144886 82.113523 
L 71.450671 81.868936 
L 73.756457 82.355042 
L 76.062242 82.019844 
L 78.368027 82.226647 
L 80.673812 81.354992 
L 82.979597 81.328634 
L 85.285382 81.889569 
L 87.591167 81.951614 
L 89.896952 81.854186 
L 92.202738 81.429664 
L 94.508523 81.509539 
L 96.814308 81.229387 
L 99.120093 81.207444 
L 101.425878 81.11334 
L 103.731663 81.001927 
L 106.037448 80.81811 
L 108.343233 81.433473 
L 110.649019 80.859692 
L 112.954804 81.226561 
L 115.260589 81.140996 
L 117.566374 80.959933 
L 119.872159 81.062334 
L 122.177944 80.591754 
L 124.483729 80.496535 
L 126.789514 80.834073 
L 129.0953 80.024281 
L 131.401085 80.586114 
L 133.70687 80.251608 
L 136.012655 80.041991 
L 138.31844 80.276389 
L 140.624225 79.912868 
L 142.93001 80.332538 
L 145.235795 80.321925 
L 147.541581 79.834133 
L 149.847366 79.884108 
L 152.153151 80.01169 
L 154.458936 79.713185 
L 156.764721 79.756829 
L 159.070506 79.960951 
L 161.376291 79.064891 
L 163.682076 79.186529 
L 165.987862 78.815609 
L 168.293647 78.510409 
L 170.599432 79.376556 
L 172.905217 79.390615 
L 175.211002 78.751806 
L 177.516787 78.896491 
L 179.822572 79.214198 
L 182.128357 79.317156 
L 184.434143 78.667442 
L 186.739928 79.182187 
L 189.045713 78.97314 
L 191.351498 79.235934 
L 193.657283 78.731015 
L 195.963068 78.492505 
L 198.268853 78.520258 
L 200.574638 78.713039 
L 202.880424 78.199847 
L 205.186209 78.251556 
L 207.491994 78.15772 
L 209.797779 78.388066 
L 212.103564 78.09479 
L 214.409349 78.432983 
L 216.715134 77.894743 
L 219.020919 78.144304 
L 221.326705 78.544469 
L 223.63249 77.737431 
L 225.938275 77.463016 
L 228.24406 77.814892 
L 230.549845 77.806996 
L 232.85563 77.414472 
L 235.161415 77.662553 
L 237.4672 77.553202 
L 239.772986 77.323473 
L 242.078771 77.491873 
L 244.384556 77.33359 
L 246.690341 77.258736 
L 248.996126 77.106481 
L 251.301911 77.202599 
L 253.607696 76.86449 
L 255.913481 77.076011 
L 258.219267 76.783681 
L 260.525052 76.744974 
L 262.830837 76.700627 
L 265.136622 76.655783 
L 267.442407 76.420984 
L 269.748192 76.70964 
L 272.053977 76.509945 
L 274.359762 76.831654 
L 276.665548 76.455263 
L 278.971333 76.846319 
L 281.277118 76.528989 
L 283.582903 76.41669 
L 285.888688 76.503916 
" clip-path="url(#p96d0905b8e)" style="fill: none; stroke: #ff7f0e; stroke-width: 1.5; stroke-linecap: square"/>
   </g>
   <g id="line2d_16">
    <path d="M 55.310176 82.896387 
L 57.615961 101.115526 
L 59.921746 53.937698 
L 62.227531 84.931686 
L 64.533316 72.124988 
L 66.839101 55.268124 
L 69.144886 104.484254 
L 71.450671 74.830908 
L 73.756457 74.831509 
L 76.062242 77.504979 
L 78.368027 59.31829 
L 80.673812 52.595255 
L 82.979597 99.112676 
L 85.285382 68.780296 
L 87.591167 45.883636 
L 89.896952 80.91457 
L 92.202738 128.12725 
L 94.508523 68.811544 
L 96.814308 80.254165 
L 99.120093 54.663003 
L 101.425878 89.044948 
L 103.731663 83.644526 
L 106.037448 72.189887 
L 108.343233 64.806446 
L 110.649019 55.343839 
L 112.954804 54.672617 
L 115.260589 96.493889 
L 117.566374 72.200703 
L 119.872159 58.754031 
L 122.177944 85.03925 
L 124.483729 74.948687 
L 126.789514 105.273857 
L 129.0953 105.99856 
L 131.401085 118.079954 
L 133.70687 110.697113 
L 136.012655 122.83319 
L 138.31844 113.392817 
L 140.624225 125.528293 
L 142.93001 87.140649 
L 145.235795 139.027245 
L 147.541581 118.826891 
L 149.847366 108.703879 
L 152.153151 91.838001 
L 154.458936 137.69682 
L 156.764721 142.417607 
L 159.070506 119.50953 
L 161.376291 139.050681 
L 163.682076 159.30632 
L 165.987862 184.919715 
L 168.293647 134.383375 
L 170.599432 112.115272 
L 172.905217 172.804671 
L 175.211002 193.038676 
L 177.516787 141.799266 
L 179.822572 164.708544 
L 182.128357 138.43294 
L 184.434143 169.448561 
L 186.739928 155.992875 
L 189.045713 161.362049 
L 191.351498 184.983412 
L 193.657283 180.925434 
L 195.963068 160.052055 
L 198.268853 218.024717 
L 200.574638 209.926788 
L 202.880424 184.34464 
L 205.186209 162.076537 
L 207.491994 182.981164 
L 209.797779 201.861309 
L 212.103564 184.335025 
L 214.409349 178.260978 
L 216.715134 206.615146 
L 219.020919 232.888347 
L 221.326705 212.665758 
L 223.63249 236.958944 
L 225.938275 183.663803 
L 228.24406 198.516016 
L 230.549845 230.679383 
L 232.85563 216.725539 
L 235.161415 224.161861 
L 237.4672 185.708717 
L 239.772986 224.152847 
L 242.078771 199.231705 
L 244.384556 240.747712 
L 246.690341 213.381448 
L 248.996126 218.771654 
L 251.301911 230.60487 
L 253.607696 224.552455 
L 255.913481 224.887165 
L 258.219267 237.68545 
L 260.525052 219.832269 
L 262.830837 228.927116 
L 265.136622 217.473077 
L 267.442407 236.330387 
L 269.748192 220.850219 
L 272.053977 238.030976 
L 274.359762 235.994476 
L 276.665548 220.849618 
L 278.971333 220.178396 
L 281.277118 238.008141 
L 283.582903 209.395579 
L 285.888688 230.982845 
" clip-path="url(#p96d0905b8e)" style="fill: none; stroke: #2ca02c; stroke-width: 1.5; stroke-linecap: square"/>
   </g>
   <g id="line2d_17">
    <path d="M 55.310176 82.896387 
L 57.615961 106.263826 
L 59.921746 53.195231 
L 62.227531 74.272291 
L 64.533316 119.781708 
L 66.839101 103.049238 
L 69.144886 98.534187 
L 71.450671 89.681982 
L 73.756457 124.25461 
L 76.062242 126.166874 
L 78.368027 99.777623 
L 80.673812 75.121498 
L 82.979597 114.244509 
L 85.285382 115.016233 
L 87.591167 97.576505 
L 89.896952 84.023291 
L 92.202738 104.399911 
L 94.508523 87.798231 
L 96.814308 100.673319 
L 99.120093 116.923539 
L 101.425878 152.57782 
L 103.731663 101.125197 
L 106.037448 85.579137 
L 108.343233 101.335329 
L 110.649019 91.276879 
L 112.954804 86.425864 
L 115.260589 97.518858 
L 117.566374 96.274181 
L 119.872159 137.199742 
L 122.177944 127.115258 
L 124.483729 146.291212 
L 126.789514 137.533846 
L 129.0953 119.680671 
L 131.401085 141.093075 
L 133.70687 177.972818 
L 136.012655 139.040103 
L 138.31844 130.528201 
L 140.624225 160.317998 
L 142.93001 167.871598 
L 145.235795 195.231548 
L 147.541581 165.682876 
L 149.847366 173.935677 
L 152.153151 119.90754 
L 154.458936 154.208669 
L 156.764721 138.549795 
L 159.070506 167.376331 
L 161.376291 179.188981 
L 163.682076 176.245891 
L 165.987862 185.233224 
L 168.293647 205.212515 
L 170.599432 195.025135 
L 172.905217 154.624594 
L 175.211002 206.824768 
L 177.516787 208.241765 
L 179.822572 162.073438 
L 182.128357 177.769504 
L 184.434143 194.215599 
L 186.739928 159.704338 
L 189.045713 182.689943 
L 191.351498 206.957418 
L 193.657283 127.059471 
L 195.963068 183.259594 
L 198.268853 219.949659 
L 200.574638 193.516398 
L 202.880424 205.434424 
L 205.186209 199.754038 
L 207.491994 194.361886 
L 209.797779 180.467749 
L 212.103564 155.722984 
L 214.409349 237.448275 
L 216.715134 167.629233 
L 219.020919 190.563391 
L 221.326705 241.63852 
L 223.63249 216.714616 
L 225.938275 221.335044 
L 228.24406 221.244544 
L 230.549845 208.638475 
L 232.85563 226.844969 
L 235.161415 222.787993 
L 237.4672 193.739547 
L 239.772986 212.290063 
L 242.078771 242.415823 
L 244.384556 199.312698 
L 246.690341 228.646279 
L 248.996126 243.556364 
L 251.301911 210.219115 
L 253.607696 241.217016 
L 255.913481 217.388402 
L 258.219267 230.601314 
L 260.525052 221.506745 
L 262.830837 230.00315 
L 265.136622 226.792281 
L 267.442407 229.302089 
L 269.748192 220.790808 
L 272.053977 216.193314 
L 274.359762 212.87707 
L 276.665548 178.723467 
L 278.971333 228.368582 
L 281.277118 242.444337 
L 283.582903 211.07328 
L 285.888688 201.557827 
" clip-path="url(#p96d0905b8e)" style="fill: none; stroke: #d62728; stroke-width: 1.5; stroke-linecap: square"/>
   </g>
   <g id="line2d_18">
    <path d="M 55.310176 82.896387 
L 57.615961 84.322209 
L 59.921746 83.55956 
L 62.227531 83.916019 
L 64.533316 83.791671 
L 66.839101 82.680863 
L 69.144886 83.882861 
L 71.450671 82.813498 
L 73.756457 83.277705 
L 76.062242 83.14507 
L 78.368027 82.763753 
L 80.673812 84.007195 
L 82.979597 83.310864 
L 85.285382 83.501529 
L 87.591167 83.443498 
L 89.896952 83.020736 
L 92.202738 83.178229 
L 94.508523 83.294291 
L 96.814308 83.178229 
L 99.120093 83.32745 
L 101.425878 83.443498 
L 103.731663 83.501529 
L 106.037448 83.23626 
L 108.343233 83.857988 
L 110.649019 83.601005 
L 112.954804 83.302577 
L 115.260589 83.783385 
L 117.566374 83.310864 
L 119.872159 83.501529 
L 122.177944 83.087053 
L 124.483729 83.00415 
L 126.789514 82.92126 
L 129.0953 82.680863 
L 131.401085 83.368895 
L 133.70687 83.32745 
L 136.012655 83.402053 
L 138.31844 83.725354 
L 140.624225 83.576133 
L 142.93001 83.741926 
L 145.235795 83.609291 
L 147.541581 83.65075 
L 149.847366 83.15337 
L 152.153151 83.360608 
L 154.458936 83.96575 
L 156.764721 83.227974 
L 159.070506 84.156416 
L 161.376291 83.41864 
L 163.682076 83.700481 
L 165.987862 84.131544 
L 168.293647 83.41864 
L 170.599432 83.070467 
L 172.905217 83.700481 
L 175.211002 83.717067 
L 177.516787 83.625878 
L 179.822572 84.164702 
L 182.128357 83.625878 
L 184.434143 83.675609 
L 186.739928 83.940878 
L 189.045713 83.924306 
L 191.351498 83.841402 
L 193.657283 84.13983 
L 195.963068 84.032068 
L 198.268853 83.493243 
L 200.574638 83.095339 
L 202.880424 83.609291 
L 205.186209 83.592719 
L 207.491994 82.531642 
L 209.797779 83.335736 
L 212.103564 83.468371 
L 214.409349 83.484957 
L 216.715134 83.816543 
L 219.020919 83.41864 
L 221.326705 83.924306 
L 223.63249 83.302577 
L 225.938275 83.045608 
L 228.24406 83.460084 
L 230.549845 83.360608 
L 232.85563 83.310864 
L 235.161415 83.15337 
L 237.4672 83.783385 
L 239.772986 83.940878 
L 242.078771 83.990623 
L 244.384556 84.04864 
L 246.690341 82.838356 
L 248.996126 83.037308 
L 251.301911 82.763753 
L 253.607696 83.393767 
L 255.913481 83.518116 
L 258.219267 83.932592 
L 260.525052 83.542974 
L 262.830837 84.405099 
L 265.136622 83.841402 
L 267.442407 83.866274 
L 269.748192 83.443498 
L 272.053977 83.82483 
L 274.359762 83.468371 
L 276.665548 84.05694 
L 278.971333 84.098385 
L 281.277118 84.330496 
L 283.582903 83.725354 
L 285.888688 84.421685 
" clip-path="url(#p96d0905b8e)" style="fill: none; stroke: #9467bd; stroke-width: 1.5; stroke-linecap: square"/>
   </g>
   <g id="line2d_19">
    <path d="M 285.888688 253.44 
L 285.888688 36 
" clip-path="url(#p96d0905b8e)" style="fill: none; stroke-dasharray: 5.55,2.4; stroke-dashoffset: 0; stroke: #000000; stroke-width: 1.5"/>
   </g>
   <g id="patch_3">
    <path d="M 43.78125 253.44 
L 43.78125 36 
" style="fill: none; stroke: #000000; stroke-width: 0.8; stroke-linejoin: miter; stroke-linecap: square"/>
   </g>
   <g id="patch_4">
    <path d="M 297.417614 253.44 
L 297.417614 36 
" style="fill: none; stroke: #000000; stroke-width: 0.8; stroke-linejoin: miter; stroke-linecap: square"/>
   </g>
   <g id="patch_5">
    <path d="M 43.78125 253.44 
L 297.417614 253.44 
" style="fill: none; stroke: #000000; stroke-width: 0.8; stroke-linejoin: miter; stroke-linecap: square"/>
   </g>
   <g id="patch_6">
    <path d="M 43.78125 36 
L 297.417614 36 
" style="fill: none; stroke: #000000; stroke-width: 0.8; stroke-linejoin: miter; stroke-linecap: square"/>
   </g>
   <g id="text_16">
    <!-- Evaluation Metrics on Test Set -->
    <g transform="translate(80.393182 30)scale(0.12 -0.12)">
     <defs>
      <path id="DejaVuSans-45" d="M 628 4666 
L 3578 4666 
L 3578 4134 
L 1259 4134 
L 1259 2753 
L 3481 2753 
L 3481 2222 
L 1259 2222 
L 1259 531 
L 3634 531 
L 3634 0 
L 628 0 
L 628 4666 
z
" transform="scale(0.015625)"/>
      <path id="DejaVuSans-76" d="M 191 3500 
L 800 3500 
L 1894 563 
L 2988 3500 
L 3597 3500 
L 2284 0 
L 1503 0 
L 191 3500 
z
" transform="scale(0.015625)"/>
      <path id="DejaVuSans-6c" d="M 603 4863 
L 1178 4863 
L 1178 0 
L 603 0 
L 603 4863 
z
" transform="scale(0.015625)"/>
      <path id="DejaVuSans-75" d="M 544 1381 
L 544 3500 
L 1119 3500 
L 1119 1403 
Q 1119 906 1312 657 
Q 1506 409 1894 409 
Q 2359 409 2629 706 
Q 2900 1003 2900 1516 
L 2900 3500 
L 3475 3500 
L 3475 0 
L 2900 0 
L 2900 538 
Q 2691 219 2414 64 
Q 2138 -91 1772 -91 
Q 1169 -91 856 284 
Q 544 659 544 1381 
z
M 1991 3584 
L 1991 3584 
z
" transform="scale(0.015625)"/>
      <path id="DejaVuSans-6e" d="M 3513 2113 
L 3513 0 
L 2938 0 
L 2938 2094 
Q 2938 2591 2744 2837 
Q 2550 3084 2163 3084 
Q 1697 3084 1428 2787 
Q 1159 2491 1159 1978 
L 1159 0 
L 581 0 
L 581 3500 
L 1159 3500 
L 1159 2956 
Q 1366 3272 1645 3428 
Q 1925 3584 2291 3584 
Q 2894 3584 3203 3211 
Q 3513 2838 3513 2113 
z
" transform="scale(0.015625)"/>
      <path id="DejaVuSans-20" transform="scale(0.015625)"/>
      <path id="DejaVuSans-4d" d="M 628 4666 
L 1569 4666 
L 2759 1491 
L 3956 4666 
L 4897 4666 
L 4897 0 
L 4281 0 
L 4281 4097 
L 3078 897 
L 2444 897 
L 1241 4097 
L 1241 0 
L 628 0 
L 628 4666 
z
" transform="scale(0.015625)"/>
      <path id="DejaVuSans-72" d="M 2631 2963 
Q 2534 3019 2420 3045 
Q 2306 3072 2169 3072 
Q 1681 3072 1420 2755 
Q 1159 2438 1159 1844 
L 1159 0 
L 581 0 
L 581 3500 
L 1159 3500 
L 1159 2956 
Q 1341 3275 1631 3429 
Q 1922 3584 2338 3584 
Q 2397 3584 2469 3576 
Q 2541 3569 2628 3553 
L 2631 2963 
z
" transform="scale(0.015625)"/>
      <path id="DejaVuSans-63" d="M 3122 3366 
L 3122 2828 
Q 2878 2963 2633 3030 
Q 2388 3097 2138 3097 
Q 1578 3097 1268 2742 
Q 959 2388 959 1747 
Q 959 1106 1268 751 
Q 1578 397 2138 397 
Q 2388 397 2633 464 
Q 2878 531 3122 666 
L 3122 134 
Q 2881 22 2623 -34 
Q 2366 -91 2075 -91 
Q 1284 -91 818 406 
Q 353 903 353 1747 
Q 353 2603 823 3093 
Q 1294 3584 2113 3584 
Q 2378 3584 2631 3529 
Q 2884 3475 3122 3366 
z
" transform="scale(0.015625)"/>
      <path id="DejaVuSans-73" d="M 2834 3397 
L 2834 2853 
Q 2591 2978 2328 3040 
Q 2066 3103 1784 3103 
Q 1356 3103 1142 2972 
Q 928 2841 928 2578 
Q 928 2378 1081 2264 
Q 1234 2150 1697 2047 
L 1894 2003 
Q 2506 1872 2764 1633 
Q 3022 1394 3022 966 
Q 3022 478 2636 193 
Q 2250 -91 1575 -91 
Q 1294 -91 989 -36 
Q 684 19 347 128 
L 347 722 
Q 666 556 975 473 
Q 1284 391 1588 391 
Q 1994 391 2212 530 
Q 2431 669 2431 922 
Q 2431 1156 2273 1281 
Q 2116 1406 1581 1522 
L 1381 1569 
Q 847 1681 609 1914 
Q 372 2147 372 2553 
Q 372 3047 722 3315 
Q 1072 3584 1716 3584 
Q 2034 3584 2315 3537 
Q 2597 3491 2834 3397 
z
" transform="scale(0.015625)"/>
      <path id="DejaVuSans-54" d="M -19 4666 
L 3928 4666 
L 3928 4134 
L 2272 4134 
L 2272 0 
L 1638 0 
L 1638 4134 
L -19 4134 
L -19 4666 
z
" transform="scale(0.015625)"/>
     </defs>
     <use xlink:href="#DejaVuSans-45"/>
     <use xlink:href="#DejaVuSans-76" x="63.183594"/>
     <use xlink:href="#DejaVuSans-61" x="122.363281"/>
     <use xlink:href="#DejaVuSans-6c" x="183.642578"/>
     <use xlink:href="#DejaVuSans-75" x="211.425781"/>
     <use xlink:href="#DejaVuSans-61" x="274.804688"/>
     <use xlink:href="#DejaVuSans-74" x="336.083984"/>
     <use xlink:href="#DejaVuSans-69" x="375.292969"/>
     <use xlink:href="#DejaVuSans-6f" x="403.076172"/>
     <use xlink:href="#DejaVuSans-6e" x="464.257812"/>
     <use xlink:href="#DejaVuSans-20" x="527.636719"/>
     <use xlink:href="#DejaVuSans-4d" x="559.423828"/>
     <use xlink:href="#DejaVuSans-65" x="645.703125"/>
     <use xlink:href="#DejaVuSans-74" x="707.226562"/>
     <use xlink:href="#DejaVuSans-72" x="746.435547"/>
     <use xlink:href="#DejaVuSans-69" x="787.548828"/>
     <use xlink:href="#DejaVuSans-63" x="815.332031"/>
     <use xlink:href="#DejaVuSans-73" x="870.3125"/>
     <use xlink:href="#DejaVuSans-20" x="922.412109"/>
     <use xlink:href="#DejaVuSans-6f" x="954.199219"/>
     <use xlink:href="#DejaVuSans-6e" x="1015.380859"/>
     <use xlink:href="#DejaVuSans-20" x="1078.759766"/>
     <use xlink:href="#DejaVuSans-54" x="1110.546875"/>
     <use xlink:href="#DejaVuSans-65" x="1154.630859"/>
     <use xlink:href="#DejaVuSans-73" x="1216.154297"/>
     <use xlink:href="#DejaVuSans-74" x="1268.253906"/>
     <use xlink:href="#DejaVuSans-20" x="1307.462891"/>
     <use xlink:href="#DejaVuSans-53" x="1339.25"/>
     <use xlink:href="#DejaVuSans-65" x="1402.726562"/>
     <use xlink:href="#DejaVuSans-74" x="1464.25"/>
    </g>
   </g>
   <g id="legend_1">
    <g id="patch_7">
     <path d="M 50.78125 248.44 
L 140.395313 248.44 
Q 142.395313 248.44 142.395313 246.44 
L 142.395313 174.049375 
Q 142.395313 172.049375 140.395313 172.049375 
L 50.78125 172.049375 
Q 48.78125 172.049375 48.78125 174.049375 
L 48.78125 246.44 
Q 48.78125 248.44 50.78125 248.44 
z
" style="fill: #ffffff; opacity: 0.8; stroke: #cccccc; stroke-linejoin: miter"/>
    </g>
    <g id="line2d_20">
     <path d="M 52.78125 180.147812 
L 62.78125 180.147812 
L 72.78125 180.147812 
" style="fill: none; stroke: #1f77b4; stroke-width: 1.5; stroke-linecap: square"/>
    </g>
    <g id="text_17">
     <!-- Precision -->
     <g transform="translate(80.78125 183.647812)scale(0.1 -0.1)">
      <defs>
       <path id="DejaVuSans-50" d="M 1259 4147 
L 1259 2394 
L 2053 2394 
Q 2494 2394 2734 2622 
Q 2975 2850 2975 3272 
Q 2975 3691 2734 3919 
Q 2494 4147 2053 4147 
L 1259 4147 
z
M 628 4666 
L 2053 4666 
Q 2838 4666 3239 4311 
Q 3641 3956 3641 3272 
Q 3641 2581 3239 2228 
Q 2838 1875 2053 1875 
L 1259 1875 
L 1259 0 
L 628 0 
L 628 4666 
z
" transform="scale(0.015625)"/>
      </defs>
      <use xlink:href="#DejaVuSans-50"/>
      <use xlink:href="#DejaVuSans-72" x="58.552734"/>
      <use xlink:href="#DejaVuSans-65" x="97.416016"/>
      <use xlink:href="#DejaVuSans-63" x="158.939453"/>
      <use xlink:href="#DejaVuSans-69" x="213.919922"/>
      <use xlink:href="#DejaVuSans-73" x="241.703125"/>
      <use xlink:href="#DejaVuSans-69" x="293.802734"/>
      <use xlink:href="#DejaVuSans-6f" x="321.585938"/>
      <use xlink:href="#DejaVuSans-6e" x="382.767578"/>
     </g>
    </g>
    <g id="line2d_21">
     <path d="M 52.78125 194.825937 
L 62.78125 194.825937 
L 72.78125 194.825937 
" style="fill: none; stroke: #ff7f0e; stroke-width: 1.5; stroke-linecap: square"/>
    </g>
    <g id="text_18">
     <!-- NDCG -->
     <g transform="translate(80.78125 198.325937)scale(0.1 -0.1)">
      <defs>
       <path id="DejaVuSans-4e" d="M 628 4666 
L 1478 4666 
L 3547 763 
L 3547 4666 
L 4159 4666 
L 4159 0 
L 3309 0 
L 1241 3903 
L 1241 0 
L 628 0 
L 628 4666 
z
" transform="scale(0.015625)"/>
       <path id="DejaVuSans-44" d="M 1259 4147 
L 1259 519 
L 2022 519 
Q 2988 519 3436 956 
Q 3884 1394 3884 2338 
Q 3884 3275 3436 3711 
Q 2988 4147 2022 4147 
L 1259 4147 
z
M 628 4666 
L 1925 4666 
Q 3281 4666 3915 4102 
Q 4550 3538 4550 2338 
Q 4550 1131 3912 565 
Q 3275 0 1925 0 
L 628 0 
L 628 4666 
z
" transform="scale(0.015625)"/>
       <path id="DejaVuSans-43" d="M 4122 4306 
L 4122 3641 
Q 3803 3938 3442 4084 
Q 3081 4231 2675 4231 
Q 1875 4231 1450 3742 
Q 1025 3253 1025 2328 
Q 1025 1406 1450 917 
Q 1875 428 2675 428 
Q 3081 428 3442 575 
Q 3803 722 4122 1019 
L 4122 359 
Q 3791 134 3420 21 
Q 3050 -91 2638 -91 
Q 1578 -91 968 557 
Q 359 1206 359 2328 
Q 359 3453 968 4101 
Q 1578 4750 2638 4750 
Q 3056 4750 3426 4639 
Q 3797 4528 4122 4306 
z
" transform="scale(0.015625)"/>
       <path id="DejaVuSans-47" d="M 3809 666 
L 3809 1919 
L 2778 1919 
L 2778 2438 
L 4434 2438 
L 4434 434 
Q 4069 175 3628 42 
Q 3188 -91 2688 -91 
Q 1594 -91 976 548 
Q 359 1188 359 2328 
Q 359 3472 976 4111 
Q 1594 4750 2688 4750 
Q 3144 4750 3555 4637 
Q 3966 4525 4313 4306 
L 4313 3634 
Q 3963 3931 3569 4081 
Q 3175 4231 2741 4231 
Q 1884 4231 1454 3753 
Q 1025 3275 1025 2328 
Q 1025 1384 1454 906 
Q 1884 428 2741 428 
Q 3075 428 3337 486 
Q 3600 544 3809 666 
z
" transform="scale(0.015625)"/>
      </defs>
      <use xlink:href="#DejaVuSans-4e"/>
      <use xlink:href="#DejaVuSans-44" x="74.804688"/>
      <use xlink:href="#DejaVuSans-43" x="151.806641"/>
      <use xlink:href="#DejaVuSans-47" x="221.630859"/>
     </g>
    </g>
    <g id="line2d_22">
     <path d="M 52.78125 209.504062 
L 62.78125 209.504062 
L 72.78125 209.504062 
" style="fill: none; stroke: #2ca02c; stroke-width: 1.5; stroke-linecap: square"/>
    </g>
    <g id="text_19">
     <!-- dPrecision -->
     <g transform="translate(80.78125 213.004062)scale(0.1 -0.1)">
      <defs>
       <path id="DejaVuSans-64" d="M 2906 2969 
L 2906 4863 
L 3481 4863 
L 3481 0 
L 2906 0 
L 2906 525 
Q 2725 213 2448 61 
Q 2172 -91 1784 -91 
Q 1150 -91 751 415 
Q 353 922 353 1747 
Q 353 2572 751 3078 
Q 1150 3584 1784 3584 
Q 2172 3584 2448 3432 
Q 2725 3281 2906 2969 
z
M 947 1747 
Q 947 1113 1208 752 
Q 1469 391 1925 391 
Q 2381 391 2643 752 
Q 2906 1113 2906 1747 
Q 2906 2381 2643 2742 
Q 2381 3103 1925 3103 
Q 1469 3103 1208 2742 
Q 947 2381 947 1747 
z
" transform="scale(0.015625)"/>
      </defs>
      <use xlink:href="#DejaVuSans-64"/>
      <use xlink:href="#DejaVuSans-50" x="63.476562"/>
      <use xlink:href="#DejaVuSans-72" x="122.029297"/>
      <use xlink:href="#DejaVuSans-65" x="160.892578"/>
      <use xlink:href="#DejaVuSans-63" x="222.416016"/>
      <use xlink:href="#DejaVuSans-69" x="277.396484"/>
      <use xlink:href="#DejaVuSans-73" x="305.179688"/>
      <use xlink:href="#DejaVuSans-69" x="357.279297"/>
      <use xlink:href="#DejaVuSans-6f" x="385.0625"/>
      <use xlink:href="#DejaVuSans-6e" x="446.244141"/>
     </g>
    </g>
    <g id="line2d_23">
     <path d="M 52.78125 224.182187 
L 62.78125 224.182187 
L 72.78125 224.182187 
" style="fill: none; stroke: #d62728; stroke-width: 1.5; stroke-linecap: square"/>
    </g>
    <g id="text_20">
     <!-- dNDCG -->
     <g transform="translate(80.78125 227.682187)scale(0.1 -0.1)">
      <use xlink:href="#DejaVuSans-64"/>
      <use xlink:href="#DejaVuSans-4e" x="63.476562"/>
      <use xlink:href="#DejaVuSans-44" x="138.28125"/>
      <use xlink:href="#DejaVuSans-43" x="215.283203"/>
      <use xlink:href="#DejaVuSans-47" x="285.107422"/>
     </g>
    </g>
    <g id="line2d_24">
     <path d="M 52.78125 238.860312 
L 62.78125 238.860312 
L 72.78125 238.860312 
" style="fill: none; stroke: #9467bd; stroke-width: 1.5; stroke-linecap: square"/>
    </g>
    <g id="text_21">
     <!-- Topic Cover -->
     <g transform="translate(80.78125 242.360312)scale(0.1 -0.1)">
      <use xlink:href="#DejaVuSans-54"/>
      <use xlink:href="#DejaVuSans-6f" x="44.083984"/>
      <use xlink:href="#DejaVuSans-70" x="105.265625"/>
      <use xlink:href="#DejaVuSans-69" x="168.742188"/>
      <use xlink:href="#DejaVuSans-63" x="196.525391"/>
      <use xlink:href="#DejaVuSans-20" x="251.505859"/>
      <use xlink:href="#DejaVuSans-43" x="283.292969"/>
      <use xlink:href="#DejaVuSans-6f" x="353.117188"/>
      <use xlink:href="#DejaVuSans-76" x="414.298828"/>
      <use xlink:href="#DejaVuSans-65" x="473.478516"/>
      <use xlink:href="#DejaVuSans-72" x="535.001953"/>
     </g>
    </g>
   </g>
  </g>
  <g id="axes_2">
   <g id="patch_8">
    <path d="M 348.144886 253.44 
L 601.78125 253.44 
L 601.78125 36 
L 348.144886 36 
z
" style="fill: #ffffff"/>
   </g>
   <g id="matplotlib.axis_3">
    <g id="xtick_7">
     <g id="line2d_25">
      <g>
       <use xlink:href="#m3e8a5fab3d" x="359.673812" y="253.44" style="stroke: #000000; stroke-width: 0.8"/>
      </g>
     </g>
     <g id="text_22">
      <!-- 0 -->
      <g transform="translate(356.492562 268.038437)scale(0.1 -0.1)">
       <use xlink:href="#DejaVuSans-30"/>
      </g>
     </g>
    </g>
    <g id="xtick_8">
     <g id="line2d_26">
      <g>
       <use xlink:href="#m3e8a5fab3d" x="405.789514" y="253.44" style="stroke: #000000; stroke-width: 0.8"/>
      </g>
     </g>
     <g id="text_23">
      <!-- 20 -->
      <g transform="translate(399.427014 268.038437)scale(0.1 -0.1)">
       <use xlink:href="#DejaVuSans-32"/>
       <use xlink:href="#DejaVuSans-30" x="63.623047"/>
      </g>
     </g>
    </g>
    <g id="xtick_9">
     <g id="line2d_27">
      <g>
       <use xlink:href="#m3e8a5fab3d" x="451.905217" y="253.44" style="stroke: #000000; stroke-width: 0.8"/>
      </g>
     </g>
     <g id="text_24">
      <!-- 40 -->
      <g transform="translate(445.542717 268.038437)scale(0.1 -0.1)">
       <use xlink:href="#DejaVuSans-34"/>
       <use xlink:href="#DejaVuSans-30" x="63.623047"/>
      </g>
     </g>
    </g>
    <g id="xtick_10">
     <g id="line2d_28">
      <g>
       <use xlink:href="#m3e8a5fab3d" x="498.020919" y="253.44" style="stroke: #000000; stroke-width: 0.8"/>
      </g>
     </g>
     <g id="text_25">
      <!-- 60 -->
      <g transform="translate(491.658419 268.038437)scale(0.1 -0.1)">
       <use xlink:href="#DejaVuSans-36"/>
       <use xlink:href="#DejaVuSans-30" x="63.623047"/>
      </g>
     </g>
    </g>
    <g id="xtick_11">
     <g id="line2d_29">
      <g>
       <use xlink:href="#m3e8a5fab3d" x="544.136622" y="253.44" style="stroke: #000000; stroke-width: 0.8"/>
      </g>
     </g>
     <g id="text_26">
      <!-- 80 -->
      <g transform="translate(537.774122 268.038437)scale(0.1 -0.1)">
       <use xlink:href="#DejaVuSans-38"/>
       <use xlink:href="#DejaVuSans-30" x="63.623047"/>
      </g>
     </g>
    </g>
    <g id="xtick_12">
     <g id="line2d_30">
      <g>
       <use xlink:href="#m3e8a5fab3d" x="590.252324" y="253.44" style="stroke: #000000; stroke-width: 0.8"/>
      </g>
     </g>
     <g id="text_27">
      <!-- 100 -->
      <g transform="translate(580.708574 268.038437)scale(0.1 -0.1)">
       <use xlink:href="#DejaVuSans-31"/>
       <use xlink:href="#DejaVuSans-30" x="63.623047"/>
       <use xlink:href="#DejaVuSans-30" x="127.246094"/>
      </g>
     </g>
    </g>
    <g id="text_28">
     <!-- Step -->
     <g transform="translate(463.577912 281.716562)scale(0.1 -0.1)">
      <use xlink:href="#DejaVuSans-53"/>
      <use xlink:href="#DejaVuSans-74" x="63.476562"/>
      <use xlink:href="#DejaVuSans-65" x="102.685547"/>
      <use xlink:href="#DejaVuSans-70" x="164.208984"/>
     </g>
    </g>
   </g>
   <g id="matplotlib.axis_4">
    <g id="ytick_8">
     <g id="line2d_31">
      <g>
       <use xlink:href="#md33f81defa" x="348.144886" y="225.704811" style="stroke: #000000; stroke-width: 0.8"/>
      </g>
     </g>
     <g id="text_29">
      <!-- 0.2 -->
      <g transform="translate(325.241761 229.504029)scale(0.1 -0.1)">
       <use xlink:href="#DejaVuSans-30"/>
       <use xlink:href="#DejaVuSans-2e" x="63.623047"/>
       <use xlink:href="#DejaVuSans-32" x="95.410156"/>
      </g>
     </g>
    </g>
    <g id="ytick_9">
     <g id="line2d_32">
      <g>
       <use xlink:href="#md33f81defa" x="348.144886" y="180.758612" style="stroke: #000000; stroke-width: 0.8"/>
      </g>
     </g>
     <g id="text_30">
      <!-- 0.4 -->
      <g transform="translate(325.241761 184.557831)scale(0.1 -0.1)">
       <use xlink:href="#DejaVuSans-30"/>
       <use xlink:href="#DejaVuSans-2e" x="63.623047"/>
       <use xlink:href="#DejaVuSans-34" x="95.410156"/>
      </g>
     </g>
    </g>
    <g id="ytick_10">
     <g id="line2d_33">
      <g>
       <use xlink:href="#md33f81defa" x="348.144886" y="135.812414" style="stroke: #000000; stroke-width: 0.8"/>
      </g>
     </g>
     <g id="text_31">
      <!-- 0.6 -->
      <g transform="translate(325.241761 139.611633)scale(0.1 -0.1)">
       <use xlink:href="#DejaVuSans-30"/>
       <use xlink:href="#DejaVuSans-2e" x="63.623047"/>
       <use xlink:href="#DejaVuSans-36" x="95.410156"/>
      </g>
     </g>
    </g>
    <g id="ytick_11">
     <g id="line2d_34">
      <g>
       <use xlink:href="#md33f81defa" x="348.144886" y="90.866216" style="stroke: #000000; stroke-width: 0.8"/>
      </g>
     </g>
     <g id="text_32">
      <!-- 0.8 -->
      <g transform="translate(325.241761 94.665434)scale(0.1 -0.1)">
       <use xlink:href="#DejaVuSans-30"/>
       <use xlink:href="#DejaVuSans-2e" x="63.623047"/>
       <use xlink:href="#DejaVuSans-38" x="95.410156"/>
      </g>
     </g>
    </g>
    <g id="ytick_12">
     <g id="line2d_35">
      <g>
       <use xlink:href="#md33f81defa" x="348.144886" y="45.920017" style="stroke: #000000; stroke-width: 0.8"/>
      </g>
     </g>
     <g id="text_33">
      <!-- 1.0 -->
      <g transform="translate(325.241761 49.719236)scale(0.1 -0.1)">
       <use xlink:href="#DejaVuSans-31"/>
       <use xlink:href="#DejaVuSans-2e" x="63.623047"/>
       <use xlink:href="#DejaVuSans-30" x="95.410156"/>
      </g>
     </g>
    </g>
   </g>
   <g id="line2d_36">
    <path d="M 359.673812 45.920017 
L 361.979597 45.900869 
L 364.285382 45.883636 
L 366.591167 45.913965 
L 368.896952 45.934147 
L 371.202738 45.944513 
L 373.508523 45.975171 
L 375.814308 45.997466 
L 378.120093 46.006644 
L 380.425878 46.013423 
L 382.731663 46.033077 
L 385.037448 46.059818 
L 387.343233 46.055086 
L 389.649019 46.110812 
L 391.954804 46.113982 
L 394.260589 46.17904 
L 396.566374 46.176399 
L 398.872159 46.219889 
L 401.177944 46.237078 
L 403.483729 46.266922 
L 405.789514 46.27348 
L 408.0953 46.274207 
L 410.401085 46.298086 
L 412.70687 46.364223 
L 415.012655 46.345339 
L 417.31844 46.356124 
L 419.624225 46.41097 
L 421.93001 46.419531 
L 424.235795 46.460996 
L 426.541581 46.394573 
L 428.847366 46.448077 
L 431.153151 46.483225 
L 433.458936 46.512013 
L 435.764721 46.536817 
L 438.070506 46.537785 
L 440.376291 46.584312 
L 442.682076 46.620825 
L 444.987862 46.647236 
L 447.293647 46.651792 
L 449.599432 46.720834 
L 451.905217 46.729703 
L 454.211002 46.766502 
L 456.516787 46.789391 
L 458.822572 46.810696 
L 461.128357 46.89028 
L 463.434143 46.861757 
L 465.739928 46.846482 
L 468.045713 46.905686 
L 470.351498 46.94363 
L 472.657283 46.904586 
L 474.963068 46.959256 
L 477.268853 46.968764 
L 479.574638 46.988176 
L 481.880424 46.990641 
L 484.186209 47.000633 
L 486.491994 47.051672 
L 488.797779 47.0579 
L 491.103564 47.093709 
L 493.409349 47.10819 
L 495.715134 47.119085 
L 498.020919 47.105351 
L 500.326705 47.156038 
L 502.63249 47.169859 
L 504.938275 47.199417 
L 507.24406 47.193629 
L 509.549845 47.172434 
L 511.85563 47.231198 
L 514.161415 47.27033 
L 516.4672 47.283844 
L 518.772986 47.287607 
L 521.078771 47.276669 
L 523.384556 47.287585 
L 525.690341 47.348198 
L 527.996126 47.369612 
L 530.301911 47.428178 
L 532.607696 47.411473 
L 534.913481 47.439997 
L 537.219267 47.426703 
L 539.525052 47.4718 
L 541.830837 47.451441 
L 544.136622 47.508511 
L 546.442407 47.538157 
L 548.748192 47.593531 
L 551.053977 47.559571 
L 553.359762 47.590648 
L 555.665548 47.596458 
L 557.971333 47.623133 
L 560.277118 47.657269 
L 562.582903 47.697105 
L 564.888688 47.711499 
L 567.194473 47.734366 
L 569.500258 47.739846 
L 571.806043 47.776227 
L 574.111829 47.764518 
L 576.417614 47.755341 
L 578.723399 47.835035 
L 581.029184 47.791941 
L 583.334969 47.79861 
L 585.640754 47.837346 
L 587.946539 47.849891 
L 590.252324 47.84287 
" clip-path="url(#p3d17a7469e)" style="fill: none; stroke: #1f77b4; stroke-width: 1.5; stroke-linecap: square"/>
   </g>
   <g id="line2d_37">
    <path d="M 359.673812 45.920017 
L 361.979597 45.936992 
L 364.285382 46.812897 
L 366.591167 47.377793 
L 368.896952 49.371951 
L 371.202738 51.859578 
L 373.508523 51.305164 
L 375.814308 55.411285 
L 378.120093 57.806411 
L 380.425878 57.440562 
L 382.731663 60.398729 
L 385.037448 62.67551 
L 387.343233 66.865877 
L 389.649019 69.391852 
L 391.954804 71.640415 
L 394.260589 74.539178 
L 396.566374 75.899314 
L 398.872159 76.822434 
L 401.177944 82.721533 
L 403.483729 84.17532 
L 405.789514 86.809454 
L 408.0953 87.677679 
L 410.401085 90.464831 
L 412.70687 93.400346 
L 415.012655 93.886636 
L 417.31844 99.452685 
L 419.624225 100.674645 
L 421.93001 102.326199 
L 424.235795 104.803177 
L 426.541581 106.734053 
L 428.847366 110.201459 
L 431.153151 114.837913 
L 433.458936 115.019428 
L 435.764721 118.819326 
L 438.070506 122.604513 
L 440.376291 123.15914 
L 442.682076 126.401694 
L 444.987862 126.315742 
L 447.293647 129.576504 
L 449.599432 132.908126 
L 451.905217 135.88286 
L 454.211002 138.067586 
L 456.516787 140.404282 
L 458.822572 146.438876 
L 461.128357 148.665715 
L 463.434143 152.147499 
L 465.739928 154.53937 
L 468.045713 154.757831 
L 470.351498 158.143533 
L 472.657283 160.795895 
L 474.963068 161.210267 
L 477.268853 163.012391 
L 479.574638 166.843095 
L 481.880424 168.247553 
L 484.186209 169.263638 
L 486.491994 172.601911 
L 488.797779 176.794523 
L 491.103564 176.284263 
L 493.409349 178.164983 
L 495.715134 181.232497 
L 498.020919 182.93108 
L 500.326705 187.488929 
L 502.63249 188.598156 
L 504.938275 189.7465 
L 507.24406 191.106794 
L 509.549845 192.162599 
L 511.85563 196.936076 
L 514.161415 199.340199 
L 516.4672 199.579402 
L 518.772986 200.976007 
L 521.078771 202.644017 
L 523.384556 205.329717 
L 525.690341 208.63256 
L 527.996126 209.956352 
L 530.301911 213.964625 
L 532.607696 214.762193 
L 534.913481 217.205963 
L 537.219267 219.50414 
L 539.525052 217.445657 
L 541.830837 220.097592 
L 544.136622 220.80701 
L 546.442407 224.683728 
L 548.748192 223.851031 
L 551.053977 228.808754 
L 553.359762 228.677655 
L 555.665548 231.925187 
L 557.971333 233.534162 
L 560.277118 234.315782 
L 562.582903 233.957655 
L 564.888688 236.896852 
L 567.194473 236.099337 
L 569.500258 238.214453 
L 571.806043 240.201864 
L 574.111829 239.185635 
L 576.417614 238.929062 
L 578.723399 240.894717 
L 581.029184 241.36706 
L 583.334969 242.141812 
L 585.640754 242.391 
L 587.946539 243.033029 
L 590.252324 243.556364 
" clip-path="url(#p3d17a7469e)" style="fill: none; stroke: #ff7f0e; stroke-width: 1.5; stroke-linecap: square"/>
   </g>
   <g id="line2d_38">
    <path d="M 359.673812 45.920017 
L 361.979597 45.939338 
L 364.285382 45.936627 
L 366.591167 45.937762 
L 368.896952 45.919536 
L 371.202738 45.967483 
L 373.508523 45.955025 
L 375.814308 45.966003 
L 378.120093 45.958774 
L 380.425878 45.969098 
L 382.731663 45.99482 
L 385.037448 45.97773 
L 387.343233 45.959389 
L 389.649019 46.016814 
L 391.954804 45.998646 
L 394.260589 46.008355 
L 396.566374 46.01666 
L 398.872159 46.0246 
L 401.177944 46.008605 
L 403.483729 46.02285 
L 405.789514 46.068028 
L 408.0953 46.04592 
L 410.401085 46.038557 
L 412.70687 46.021178 
L 415.012655 46.031424 
L 417.31844 46.013507 
L 419.624225 46.048861 
L 421.93001 46.042613 
L 424.235795 46.067663 
L 426.541581 46.054282 
L 428.847366 46.076103 
L 431.153151 46.023696 
L 433.458936 46.079967 
L 435.764721 46.060434 
L 438.070506 46.048361 
L 440.376291 46.04963 
L 442.682076 46.057224 
L 444.987862 46.034712 
L 447.293647 46.073353 
L 449.599432 46.075007 
L 451.905217 46.058762 
L 454.211002 46.089733 
L 456.516787 46.062645 
L 458.822572 46.076948 
L 461.128357 46.091252 
L 463.434143 46.052033 
L 465.739928 46.111937 
L 468.045713 46.097384 
L 470.351498 46.126664 
L 472.657283 46.116051 
L 474.963068 46.120742 
L 477.268853 46.113014 
L 479.574638 46.09898 
L 481.880424 46.078659 
L 484.186209 46.113533 
L 486.491994 46.111611 
L 488.797779 46.140428 
L 491.103564 46.139371 
L 493.409349 46.175956 
L 495.715134 46.10021 
L 498.020919 46.160364 
L 500.326705 46.151079 
L 502.63249 46.14906 
L 504.938275 46.183223 
L 507.24406 46.169996 
L 509.549845 46.143812 
L 511.85563 46.130605 
L 514.161415 46.194315 
L 516.4672 46.179493 
L 518.772986 46.155462 
L 521.078771 46.141409 
L 523.384556 46.173207 
L 525.690341 46.195065 
L 527.996126 46.140659 
L 530.301911 46.16519 
L 532.607696 46.178897 
L 534.913481 46.152867 
L 537.219267 46.152963 
L 539.525052 46.177417 
L 541.830837 46.188144 
L 544.136622 46.189182 
L 546.442407 46.17982 
L 548.748192 46.182569 
L 551.053977 46.182877 
L 553.359762 46.172803 
L 555.665548 46.168535 
L 557.971333 46.18774 
L 560.277118 46.211791 
L 562.582903 46.225748 
L 564.888688 46.195757 
L 567.194473 46.202447 
L 569.500258 46.227882 
L 571.806043 46.255161 
L 574.111829 46.187721 
L 576.417614 46.189894 
L 578.723399 46.237052 
L 581.029184 46.236225 
L 583.334969 46.239301 
L 585.640754 46.172495 
L 587.946539 46.249779 
L 590.252324 46.220499 
" clip-path="url(#p3d17a7469e)" style="fill: none; stroke: #2ca02c; stroke-width: 1.5; stroke-linecap: square"/>
   </g>
   <g id="line2d_39">
    <path d="M 590.252324 253.44 
L 590.252324 36 
" clip-path="url(#p3d17a7469e)" style="fill: none; stroke-dasharray: 5.55,2.4; stroke-dashoffset: 0; stroke: #000000; stroke-width: 1.5"/>
   </g>
   <g id="patch_9">
    <path d="M 348.144886 253.44 
L 348.144886 36 
" style="fill: none; stroke: #000000; stroke-width: 0.8; stroke-linejoin: miter; stroke-linecap: square"/>
   </g>
   <g id="patch_10">
    <path d="M 601.78125 253.44 
L 601.78125 36 
" style="fill: none; stroke: #000000; stroke-width: 0.8; stroke-linejoin: miter; stroke-linecap: square"/>
   </g>
   <g id="patch_11">
    <path d="M 348.144886 253.44 
L 601.78125 253.44 
" style="fill: none; stroke: #000000; stroke-width: 0.8; stroke-linejoin: miter; stroke-linecap: square"/>
   </g>
   <g id="patch_12">
    <path d="M 348.144886 36 
L 601.78125 36 
" style="fill: none; stroke: #000000; stroke-width: 0.8; stroke-linejoin: miter; stroke-linecap: square"/>
   </g>
   <g id="text_34">
    <!-- Proxy On Validation Set -->
    <g transform="translate(404.804318 30)scale(0.12 -0.12)">
     <defs>
      <path id="DejaVuSans-78" d="M 3513 3500 
L 2247 1797 
L 3578 0 
L 2900 0 
L 1881 1375 
L 863 0 
L 184 0 
L 1544 1831 
L 300 3500 
L 978 3500 
L 1906 2253 
L 2834 3500 
L 3513 3500 
z
" transform="scale(0.015625)"/>
      <path id="DejaVuSans-79" d="M 2059 -325 
Q 1816 -950 1584 -1140 
Q 1353 -1331 966 -1331 
L 506 -1331 
L 506 -850 
L 844 -850 
Q 1081 -850 1212 -737 
Q 1344 -625 1503 -206 
L 1606 56 
L 191 3500 
L 800 3500 
L 1894 763 
L 2988 3500 
L 3597 3500 
L 2059 -325 
z
" transform="scale(0.015625)"/>
      <path id="DejaVuSans-4f" d="M 2522 4238 
Q 1834 4238 1429 3725 
Q 1025 3213 1025 2328 
Q 1025 1447 1429 934 
Q 1834 422 2522 422 
Q 3209 422 3611 934 
Q 4013 1447 4013 2328 
Q 4013 3213 3611 3725 
Q 3209 4238 2522 4238 
z
M 2522 4750 
Q 3503 4750 4090 4092 
Q 4678 3434 4678 2328 
Q 4678 1225 4090 567 
Q 3503 -91 2522 -91 
Q 1538 -91 948 565 
Q 359 1222 359 2328 
Q 359 3434 948 4092 
Q 1538 4750 2522 4750 
z
" transform="scale(0.015625)"/>
      <path id="DejaVuSans-56" d="M 1831 0 
L 50 4666 
L 709 4666 
L 2188 738 
L 3669 4666 
L 4325 4666 
L 2547 0 
L 1831 0 
z
" transform="scale(0.015625)"/>
     </defs>
     <use xlink:href="#DejaVuSans-50"/>
     <use xlink:href="#DejaVuSans-72" x="58.552734"/>
     <use xlink:href="#DejaVuSans-6f" x="97.416016"/>
     <use xlink:href="#DejaVuSans-78" x="155.472656"/>
     <use xlink:href="#DejaVuSans-79" x="214.652344"/>
     <use xlink:href="#DejaVuSans-20" x="273.832031"/>
     <use xlink:href="#DejaVuSans-4f" x="305.619141"/>
     <use xlink:href="#DejaVuSans-6e" x="384.330078"/>
     <use xlink:href="#DejaVuSans-20" x="447.708984"/>
     <use xlink:href="#DejaVuSans-56" x="479.496094"/>
     <use xlink:href="#DejaVuSans-61" x="540.154297"/>
     <use xlink:href="#DejaVuSans-6c" x="601.433594"/>
     <use xlink:href="#DejaVuSans-69" x="629.216797"/>
     <use xlink:href="#DejaVuSans-64" x="657"/>
     <use xlink:href="#DejaVuSans-61" x="720.476562"/>
     <use xlink:href="#DejaVuSans-74" x="781.755859"/>
     <use xlink:href="#DejaVuSans-69" x="820.964844"/>
     <use xlink:href="#DejaVuSans-6f" x="848.748047"/>
     <use xlink:href="#DejaVuSans-6e" x="909.929688"/>
     <use xlink:href="#DejaVuSans-20" x="973.308594"/>
     <use xlink:href="#DejaVuSans-53" x="1005.095703"/>
     <use xlink:href="#DejaVuSans-65" x="1068.572266"/>
     <use xlink:href="#DejaVuSans-74" x="1130.095703"/>
    </g>
   </g>
   <g id="legend_2">
    <g id="patch_13">
     <path d="M 355.144886 248.44 
L 425.407386 248.44 
Q 427.407386 248.44 427.407386 246.44 
L 427.407386 203.405625 
Q 427.407386 201.405625 425.407386 201.405625 
L 355.144886 201.405625 
Q 353.144886 201.405625 353.144886 203.405625 
L 353.144886 246.44 
Q 353.144886 248.44 355.144886 248.44 
z
" style="fill: #ffffff; opacity: 0.8; stroke: #cccccc; stroke-linejoin: miter"/>
    </g>
    <g id="line2d_40">
     <path d="M 357.144886 209.504062 
L 367.144886 209.504062 
L 377.144886 209.504062 
" style="fill: none; stroke: #1f77b4; stroke-width: 1.5; stroke-linecap: square"/>
    </g>
    <g id="text_35">
     <!-- Proxy A -->
     <g transform="translate(385.144886 213.004062)scale(0.1 -0.1)">
      <defs>
       <path id="DejaVuSans-41" d="M 2188 4044 
L 1331 1722 
L 3047 1722 
L 2188 4044 
z
M 1831 4666 
L 2547 4666 
L 4325 0 
L 3669 0 
L 3244 1197 
L 1141 1197 
L 716 0 
L 50 0 
L 1831 4666 
z
" transform="scale(0.015625)"/>
      </defs>
      <use xlink:href="#DejaVuSans-50"/>
      <use xlink:href="#DejaVuSans-72" x="58.552734"/>
      <use xlink:href="#DejaVuSans-6f" x="97.416016"/>
      <use xlink:href="#DejaVuSans-78" x="155.472656"/>
      <use xlink:href="#DejaVuSans-79" x="214.652344"/>
      <use xlink:href="#DejaVuSans-20" x="273.832031"/>
      <use xlink:href="#DejaVuSans-41" x="305.619141"/>
     </g>
    </g>
    <g id="line2d_41">
     <path d="M 357.144886 224.182187 
L 367.144886 224.182187 
L 377.144886 224.182187 
" style="fill: none; stroke: #ff7f0e; stroke-width: 1.5; stroke-linecap: square"/>
    </g>
    <g id="text_36">
     <!-- Proxy F -->
     <g transform="translate(385.144886 227.682187)scale(0.1 -0.1)">
      <defs>
       <path id="DejaVuSans-46" d="M 628 4666 
L 3309 4666 
L 3309 4134 
L 1259 4134 
L 1259 2759 
L 3109 2759 
L 3109 2228 
L 1259 2228 
L 1259 0 
L 628 0 
L 628 4666 
z
" transform="scale(0.015625)"/>
      </defs>
      <use xlink:href="#DejaVuSans-50"/>
      <use xlink:href="#DejaVuSans-72" x="58.552734"/>
      <use xlink:href="#DejaVuSans-6f" x="97.416016"/>
      <use xlink:href="#DejaVuSans-78" x="155.472656"/>
      <use xlink:href="#DejaVuSans-79" x="214.652344"/>
      <use xlink:href="#DejaVuSans-20" x="273.832031"/>
      <use xlink:href="#DejaVuSans-46" x="305.619141"/>
     </g>
    </g>
    <g id="line2d_42">
     <path d="M 357.144886 238.860312 
L 367.144886 238.860312 
L 377.144886 238.860312 
" style="fill: none; stroke: #2ca02c; stroke-width: 1.5; stroke-linecap: square"/>
    </g>
    <g id="text_37">
     <!-- Proxy D -->
     <g transform="translate(385.144886 242.360312)scale(0.1 -0.1)">
      <use xlink:href="#DejaVuSans-50"/>
      <use xlink:href="#DejaVuSans-72" x="58.552734"/>
      <use xlink:href="#DejaVuSans-6f" x="97.416016"/>
      <use xlink:href="#DejaVuSans-78" x="155.472656"/>
      <use xlink:href="#DejaVuSans-79" x="214.652344"/>
      <use xlink:href="#DejaVuSans-20" x="273.832031"/>
      <use xlink:href="#DejaVuSans-44" x="305.619141"/>
     </g>
    </g>
   </g>
  </g>
  <g id="text_38">
   <!-- lastfm NCF A -->
   <g transform="translate(274.955625 16.318125)scale(0.12 -0.12)">
    <defs>
     <path id="DejaVuSans-66" d="M 2375 4863 
L 2375 4384 
L 1825 4384 
Q 1516 4384 1395 4259 
Q 1275 4134 1275 3809 
L 1275 3500 
L 2222 3500 
L 2222 3053 
L 1275 3053 
L 1275 0 
L 697 0 
L 697 3053 
L 147 3053 
L 147 3500 
L 697 3500 
L 697 3744 
Q 697 4328 969 4595 
Q 1241 4863 1831 4863 
L 2375 4863 
z
" transform="scale(0.015625)"/>
     <path id="DejaVuSans-6d" d="M 3328 2828 
Q 3544 3216 3844 3400 
Q 4144 3584 4550 3584 
Q 5097 3584 5394 3201 
Q 5691 2819 5691 2113 
L 5691 0 
L 5113 0 
L 5113 2094 
Q 5113 2597 4934 2840 
Q 4756 3084 4391 3084 
Q 3944 3084 3684 2787 
Q 3425 2491 3425 1978 
L 3425 0 
L 2847 0 
L 2847 2094 
Q 2847 2600 2669 2842 
Q 2491 3084 2119 3084 
Q 1678 3084 1418 2786 
Q 1159 2488 1159 1978 
L 1159 0 
L 581 0 
L 581 3500 
L 1159 3500 
L 1159 2956 
Q 1356 3278 1631 3431 
Q 1906 3584 2284 3584 
Q 2666 3584 2933 3390 
Q 3200 3197 3328 2828 
z
" transform="scale(0.015625)"/>
    </defs>
    <use xlink:href="#DejaVuSans-6c"/>
    <use xlink:href="#DejaVuSans-61" x="27.783203"/>
    <use xlink:href="#DejaVuSans-73" x="89.0625"/>
    <use xlink:href="#DejaVuSans-74" x="141.162109"/>
    <use xlink:href="#DejaVuSans-66" x="180.371094"/>
    <use xlink:href="#DejaVuSans-6d" x="215.576172"/>
    <use xlink:href="#DejaVuSans-20" x="312.988281"/>
    <use xlink:href="#DejaVuSans-4e" x="344.775391"/>
    <use xlink:href="#DejaVuSans-43" x="419.580078"/>
    <use xlink:href="#DejaVuSans-46" x="489.404297"/>
    <use xlink:href="#DejaVuSans-20" x="546.923828"/>
    <use xlink:href="#DejaVuSans-41" x="578.710938"/>
   </g>
  </g>
 </g>
 <defs>
  <clipPath id="p96d0905b8e">
   <rect x="43.78125" y="36" width="253.636364" height="217.44"/>
  </clipPath>
  <clipPath id="p3d17a7469e">
   <rect x="348.144886" y="36" width="253.636364" height="217.44"/>
  </clipPath>
 </defs>
</svg>
